<?xml version='1.0' encoding='utf-8'?>
<svg xmlns="http://www.w3.org/2000/svg" width="1254" height="960" viewBox="0 0 1254 960"><title>EXCELSIA - logo vertical - inverso</title><g transform="translate(368.09228 96.00000) scale(1.00093544) translate(-0.00000 -0.00000)" fill="#92A6BD"><g id="symbol" fill="#92A6BD" fill-rule="evenodd"><path id="excelsia-symbol" d="M247.4587 539.9959 C240.5895 538.3817 239.1408 536.9334 229.4139 521.9558 C228.521 520.5808 227.0234 518.2746 226.086 516.8308 C225.1486 515.387 222.6741 511.6183 220.587 508.4558 C218.4999 505.2933 216.25 501.8621 215.5872 500.8308 C214.9245 499.7996 213.3467 497.3808 212.0811 495.4558 C210.8155 493.5308 208.713 490.3245 207.409 488.3308 C206.105 486.3371 203.2952 482.062 201.1649 478.8308 C199.0347 475.5996 195.2936 469.9183 192.8515 466.2058 C184.542 453.5743 179.0951 445.3291 170.5837 432.4982 C165.9087 425.4506 161.3614 418.5643 160.4785 417.1951 C158.2251 413.7004 152.4917 405.0166 142.8243 390.4558 C129.2903 370.0712 122.422 359.6271 120.6294 356.7058 C116.0577 349.2557 116.4534 349.466 112.0837 352.1625 C110.4337 353.1807 107.0587 355.2605 104.5837 356.7844 C102.1087 358.3083 99.0743 360.1939 97.8406 360.9747 C96.6068 361.7556 94.4131 363.0766 92.9656 363.9104 C91.518 364.7442 88.4774 366.6044 86.2087 368.0442 C83.94 369.484 80.3399 371.7313 78.2087 373.0381 C76.0775 374.345 73.1524 376.1422 71.7087 377.0319 C70.265 377.9216 68.4087 379.0494 67.5837 379.538 C66.7587 380.0267 64.4208 381.5018 62.3884 382.8161 C58.0929 385.594 57.7619 385.7997 52.9587 388.6774 C50.9649 389.872 45.7899 393.0518 41.4587 395.7437 C31.2188 402.1079 29.5681 403.0861 28.1721 403.6172 C9.1519 410.8531 -7.4065 392.7441 3.4507 376.5808 C3.9588 375.8245 5.7013 373.0683 7.3231 370.4558 C8.9449 367.8433 11.139 364.3558 12.199 362.7058 C13.259 361.0558 14.4514 359.1433 14.8488 358.4558 C15.2461 357.7683 16.4597 355.7996 17.5455 354.0808 C18.6312 352.3621 20.4126 349.4933 21.5041 347.7058 C22.5956 345.9183 25.5552 341.137 28.0811 337.0808 C30.607 333.0246 34.1684 327.2871 35.9952 324.3308 C37.822 321.3745 40.4689 317.1903 41.8771 315.0324 C43.2854 312.8746 45.1805 309.8933 46.0885 308.4074 C53.0103 297.0801 56.247 291.8973 58.7047 288.2058 C59.8948 286.4183 62.188 282.8183 63.8007 280.2058 C67.24 274.6342 71.3513 268.1236 73.9833 264.0808 C75.0128 262.4995 76.0753 260.8425 76.3444 260.3984 C79.5804 255.0588 80.9031 252.9307 82.8348 249.9558 C84.0847 248.0308 85.7771 245.4117 86.5956 244.1357 C87.414 242.8596 88.535 241.1159 89.0866 240.2607 C89.6383 239.4055 90.8116 237.5245 91.6941 236.0808 C93.2984 233.4561 94.6725 231.2938 97.5721 226.8308 C98.4207 225.5245 99.558 223.7553 100.0994 222.8991 C101.2415 221.0927 105.2439 214.8585 107.9747 210.6323 C109.0148 209.0227 110.6342 206.4683 111.5735 204.9558 C113.4731 201.8971 117.2666 196.0581 122.6667 187.8812 C124.6373 184.8972 127.1029 181.1058 128.1458 179.4558 C130.5714 175.6182 131.9936 173.4074 136.8303 165.9558 C138.169 163.8933 140.1237 160.8795 141.174 159.2584 C142.2243 157.6373 146.6301 150.9435 150.9645 144.3834 C155.299 137.8232 159.8552 130.8988 161.0895 128.9957 C166.1047 121.2633 192.7378 81.4358 200.988 69.3308 C202.7218 66.787 205.8468 62.1746 207.9325 59.0808 C210.0183 55.9871 212.2484 52.7245 212.8883 51.8308 C213.5282 50.9371 215.2333 48.462 216.6773 46.3308 C218.1214 44.1995 219.8797 41.6683 220.5847 40.7058 C221.2898 39.7433 222.6955 37.7183 223.7086 36.2058 C224.7216 34.6933 226.2898 32.4433 227.1935 31.2058 C228.0972 29.9683 229.173 28.4495 229.5843 27.8308 C230.75 26.0768 236.3441 18.2331 238.442 15.4111 C239.4825 14.0115 241.2337 11.6078 242.3337 10.0695 C249.1247 0.5728 258.306 -2.4194 267.0837 2.0033 C270.8788 3.9155 272.2199 5.3464 278.3461 14.0198 C279.4393 15.5675 281.0087 17.7848 281.8337 18.9471 C286.8576 26.0254 296.9766 40.6778 303.3337 50.0793 C305.6712 53.5362 310.0776 60.0413 313.1258 64.5352 C319.1411 73.4035 351.0942 121.2415 353.1018 124.3845 C353.7793 125.4453 356.759 129.9453 359.7234 134.3845 C362.6876 138.8237 365.7814 143.4968 366.5984 144.7691 C367.4153 146.0414 370.2212 150.3187 372.8337 154.2742 C378.0917 162.2349 381.3206 167.1821 383.7216 170.9558 C384.5965 172.3308 386.5627 175.3683 388.0911 177.7058 C389.6195 180.0433 391.1993 182.4889 391.6018 183.1405 C392.2421 184.1769 394.9951 188.3861 402.4362 199.7058 C405.6145 204.5408 408.6244 209.2007 410.0756 211.5335 C410.819 212.7282 412.4748 215.3141 413.7554 217.2798 C417.2975 222.717 420.8029 228.1661 422.6335 231.0808 C425.1011 235.0099 427.1117 238.1449 430.6498 243.5808 C435.1218 250.4515 436.0538 251.9145 439.3291 257.2058 C441.2016 260.2308 443.3138 263.6058 444.023 264.7058 C444.7321 265.8058 446.4306 268.4495 447.7973 270.5808 C449.1641 272.7121 451.1376 275.768 452.183 277.3718 C453.2284 278.9756 454.7587 281.3685 455.5837 282.6894 C456.4087 284.0103 458.0605 286.6356 459.2544 288.5234 C460.4483 290.4112 462.0233 292.9037 462.7544 294.0622 C463.4855 295.2208 464.3142 296.5145 464.5958 296.9372 C464.8775 297.36 466.4448 299.8996 468.0787 302.5808 C472.32 309.5407 472.5634 309.9343 474.3403 312.7058 C475.2218 314.0808 477.0435 316.9868 478.3884 319.1636 C480.7402 322.9701 481.7872 324.6326 486.8382 332.5808 C488.1052 334.5745 490.1776 337.8933 491.4436 339.9558 C494.9807 345.7184 498.6866 351.6564 500.7314 354.8378 C501.7502 356.4229 503.0662 358.5042 503.6559 359.4628 C504.2457 360.4214 507.0391 364.9183 509.8635 369.4558 C517.3258 381.4441 517.3332 381.4621 517.3314 387.5808 C517.3282 398.1216 509.1415 405.2408 497.0837 405.1884 C489.7635 405.1566 487.3002 404.1763 473.8337 395.9359 C472.8712 395.347 470.9587 394.2194 469.5837 393.4302 C467.1564 392.0371 461.5114 388.5719 458.2087 386.4478 C457.3149 385.873 455.2105 384.5709 453.5323 383.5543 C451.8539 382.5376 449.7164 381.2351 448.7823 380.6598 C447.848 380.0844 446.0712 379.0059 444.8337 378.263 C438.9828 374.7505 431.9214 370.3826 427.8337 367.7475 C425.3587 366.1521 422.8837 364.5804 422.3337 364.255 C418.6376 362.068 407.986 355.5495 406.3337 354.4634 C402.8401 352.1671 400.2119 350.4961 395.3337 347.4697 C375.8109 335.3577 351.8974 320.4227 343.8086 315.2902 C335.2031 309.8298 332.8939 308.3769 326.9854 304.7058 C323.4446 302.5058 318.6995 299.5172 316.4406 298.0643 C314.1818 296.6115 310.2118 294.1365 307.6184 292.5643 C304.8571 290.8903 302.3697 289.1842 301.6159 288.4471 C292.1457 279.1865 298.6851 262.8068 312.1174 262.143 C316.6772 261.9177 318.9689 262.727 325.3337 266.8102 C327.1212 267.957 329.5105 269.4714 330.6432 270.1755 C331.776 270.8797 335.4322 273.2352 338.7682 275.41 C342.1043 277.5847 346.0712 280.1084 347.5837 281.018 C349.0962 281.9276 351.6274 283.532 353.2087 284.5833 C354.79 285.6346 357.8274 287.5991 359.9587 288.9488 C362.09 290.2986 364.4524 291.8038 365.2087 292.2938 C365.965 292.7838 370.4087 295.6298 375.0837 298.6182 C379.7587 301.6066 386.0024 305.617 388.9587 307.5301 C391.915 309.4433 395.6837 311.8202 397.3337 312.812 C398.9837 313.8038 401.4025 315.3001 402.7087 316.1372 C404.0149 316.9742 407.2775 319.0049 409.9587 320.6497 C412.6399 322.2946 415.5087 324.1175 416.3337 324.7008 C418.0855 325.9392 426.8229 331.4042 430.0837 333.3011 C431.3212 334.021 433.0649 335.0659 433.9587 335.6231 C434.8525 336.1803 436.7087 337.3174 438.0837 338.15 C439.4587 338.9826 442.3837 340.8422 444.5837 342.2825 C454.43 348.7286 458.514 351.098 458.8477 350.5581 C459.1236 350.1118 455.1788 343.7102 451.2753 338.2696 C450.018 336.5171 448.344 333.9859 447.5553 332.6446 C446.7665 331.3032 445.0379 328.5733 443.7138 326.5781 C442.3897 324.5829 440.5848 321.7704 439.703 320.3281 C438.8212 318.8858 436.5211 315.3336 434.5917 312.4343 C432.6623 309.535 429.5087 304.663 427.5837 301.6078 C425.6587 298.5525 422.7337 293.9995 421.0837 291.4899 C419.4337 288.9803 417.5866 286.146 416.9791 285.1914 C416.3716 284.2368 414.9202 281.9933 413.7538 280.2058 C412.5874 278.4183 410.7339 275.4933 409.6349 273.7058 C408.5359 271.9183 406.317 268.4871 404.704 266.0808 C403.091 263.6746 401.1825 260.7495 400.463 259.5808 C399.7434 258.4121 398.6728 256.7246 398.0837 255.8308 C397.4947 254.937 394.8253 250.8308 392.1517 246.7058 C389.4781 242.5808 386.8135 238.4746 386.2304 237.5808 C385.6473 236.687 381.9894 231.062 378.1016 225.0808 C374.2139 219.0996 369.9756 212.615 368.6833 210.6708 C367.391 208.7265 364.9837 205.0385 363.3337 202.4753 C361.6837 199.912 358.3885 194.8652 356.011 191.2603 C353.6335 187.6553 350.3768 182.6245 348.7738 180.0808 C347.1708 177.5371 343.8848 172.4549 341.4715 168.7871 C339.0582 165.1193 336.6411 161.4069 336.1001 160.5371 C335.5591 159.6674 332.9293 155.6371 330.2561 151.5808 C327.5829 147.5245 325.1415 143.812 324.8307 143.3308 C324.5198 142.8496 323.1656 140.7683 321.8213 138.7058 C320.4769 136.6433 317.8108 132.5371 315.8967 129.5808 C313.9824 126.6245 311.0115 122.0683 309.2945 119.4558 C307.5776 116.8433 304.258 111.7912 301.9177 108.2289 C299.5774 104.6666 296.7001 100.2229 295.5238 98.3539 C294.3475 96.485 290.9547 91.3199 287.9843 86.876 C285.014 82.4321 281.7962 77.5344 280.8337 75.9922 C276.1194 68.4383 275.1347 67.1235 274.5532 67.6061 C274.2617 67.848 274.2087 81.3042 274.2087 154.9826 L274.2087 242.0733 L273.5958 244.1883 C272.0007 249.6926 269.8801 252.0966 262.9218 256.2885 C256.7599 260.0006 245.5063 267.0487 238.3337 271.6878 C236.6837 272.755 233.7587 274.611 231.8337 275.8123 C225.2914 279.895 218.0916 284.4797 215.4587 286.2396 C214.015 287.2047 210.6962 289.3134 208.0837 290.9258 C201.5298 294.9707 197.5771 297.4834 192.4587 300.8583 C188.0148 303.7885 185.5265 305.3761 182.276 307.3552 C181.2817 307.9605 178.8068 309.536 176.776 310.8562 C168.3014 316.3656 161.3257 320.7469 155.7087 324.088 C149.7147 327.6535 142.9587 332.3345 142.9587 332.9221 C142.9587 333.2335 144.4798 335.7064 146.3711 338.4698 C148.2479 341.2121 151.2075 345.5933 152.948 348.2058 C154.6884 350.8183 157.2796 354.6995 158.706 356.8308 C160.1325 358.9621 164.1583 364.9808 167.6523 370.2058 C171.1463 375.4308 175.1796 381.3933 176.6153 383.4558 C178.051 385.5183 180.807 389.6245 182.7399 392.5808 C190.0263 403.725 189.3773 403.0835 191.7813 401.5177 C192.4976 401.0512 194.3011 399.8901 195.7891 398.9377 C199.9281 396.2881 208.8869 390.4147 210.7087 389.1564 C211.6025 388.5391 213.6605 387.1727 215.2822 386.1199 C216.9039 385.0672 220.2853 382.8558 222.7966 381.2058 C225.3078 379.5558 228.1435 377.7086 229.0981 377.1009 C230.0527 376.4932 232.6337 374.7998 234.8337 373.3378 C237.0337 371.8759 240.1837 369.8456 241.8337 368.826 C243.4837 367.8064 246.5242 365.8435 248.5903 364.464 C250.6564 363.0845 253.3421 361.3371 254.5585 360.5808 C255.7749 359.8245 259.0907 357.6817 261.9269 355.8189 C268.7293 351.3512 271.1248 349.8027 272.3337 349.0918 C273.5067 348.402 275.3069 347.2589 278.0837 345.4406 C291.1995 336.8519 295.4193 335.9252 302.4781 340.0833 C314.2322 347.0072 313.207 360.5693 300.3337 368.4507 C299.2337 369.1242 296.0269 371.2008 293.2076 373.0655 C288.0307 376.4894 283.8629 379.1963 278.2836 382.7585 C271.7659 386.9197 266.4483 390.3614 260.5837 394.2142 C253.3535 398.9641 249.2486 401.6387 246.7087 403.2547 C245.4025 404.0858 242.1166 406.2148 239.4069 407.9858 C236.6971 409.7568 232.9284 412.2073 231.0319 413.4313 C223.5563 418.2563 221.4861 419.6014 215.6035 423.4558 C212.2458 425.6558 208.9553 427.7933 208.2911 428.2058 C206.3168 429.4322 206.4243 429.7683 210.9704 436.5808 C218.4789 447.8326 221.7338 452.754 229.6543 464.8308 C230.9619 466.8245 235.4747 473.6366 239.6827 479.9687 C243.8908 486.3007 248.3937 493.0971 249.6894 495.0717 C253.5751 500.9936 253.5157 500.9559 256.1304 499.1626 C259.8793 496.5914 261.7837 495.2932 266.3337 492.2069 C268.9462 490.4348 272.2649 488.1687 273.7087 487.171 C276.7114 485.0961 287.3636 477.9133 293.4587 473.8537 C295.7275 472.3426 299.4962 469.8053 301.8337 468.2153 C304.1712 466.6254 309.6274 462.9572 313.9587 460.0638 C318.29 457.1704 324.2117 453.2062 327.1181 451.2545 C330.0245 449.3027 333.7932 446.7973 335.4931 445.687 C337.1929 444.5766 340.1596 442.6079 342.0858 441.312 C346.6864 438.2167 351.1893 435.2958 354.5733 433.2118 C356.0801 432.2839 358.2738 430.878 359.4483 430.0876 C362.4114 428.0936 363.598 427.4459 365.3337 426.875 C379.968 422.0613 392.554 438.7782 384.0287 451.7058 C382.0955 454.6372 381.8482 454.8328 368.6433 463.8768 C367.576 464.6077 363.301 467.6056 359.1433 470.5387 C354.9855 473.4719 350.7962 476.4054 349.8337 477.0577 C345.8288 479.7718 341.2878 482.8966 336.5508 486.1981 C333.7827 488.1273 329.0814 491.3933 326.1034 493.4558 C323.1254 495.5183 319.6351 497.9371 318.347 498.8308 C306.4352 507.096 301.6906 510.3652 295.9676 514.2507 C293.9787 515.601 291.0537 517.6124 289.4676 518.7204 C284.7714 522.001 282.8026 523.3554 278.5837 526.2078 C276.3837 527.6952 273.6837 529.5333 272.5837 530.2924 C270.1093 531.9999 270.1994 531.9398 265.3337 535.1374 C257.8407 540.0617 253.1565 541.3349 247.4587 539.9959 Z M70.8802 343.1888 C78.9344 337.8128 79.5242 337.4312 83.5837 334.9698 C86.4565 333.2278 91.4848 329.9681 99.0477 324.9447 C101.955 323.0136 105.3462 320.8273 106.5837 320.0862 C107.8212 319.3451 110.1454 317.8641 111.7486 316.795 C113.3517 315.726 116.333 313.8207 118.3736 312.5611 C121.74 310.483 124.039 309.002 132.9587 303.1655 C134.54 302.1308 137.24 300.4314 138.9587 299.389 C140.6775 298.3467 145.3462 295.3349 149.3337 292.6962 C153.3212 290.0574 158.5525 286.6634 160.9587 285.1537 C165.4749 282.3205 167.5718 280.9698 174.8337 276.2169 C183.54 270.5187 192.2273 264.9166 203.2087 257.9192 C205.7524 256.2983 209.5775 253.8356 211.7087 252.4465 C213.8399 251.0573 216.54 249.3205 217.7087 248.5868 C219.9646 247.1706 221.8368 245.9801 230.5326 240.4322 C235.4229 237.3122 237.4998 236.0079 241.9209 233.2807 C242.6564 232.827 243.4158 232.152 243.6084 231.7807 C243.9716 231.0808 244.1681 70.1674 243.807 69.2262 C243.4142 68.2027 242.3532 69.2751 239.8696 73.2058 C235.9483 79.412 233.6174 82.9997 232.9804 83.8097 C232.3014 84.673 231.0164 86.6287 225.0837 95.8284 C223.5712 98.1739 220.4992 102.8745 218.2571 106.2743 C216.0149 109.6741 212.4277 115.1558 210.2855 118.4558 C206.272 124.6384 205.6225 125.6245 203.0402 129.4558 C202.2062 130.6933 200.6839 132.9995 199.6573 134.5808 C198.6308 136.1621 196.8386 138.9183 195.6746 140.7058 C194.5106 142.4933 193.0015 144.8299 192.321 145.8984 C191.6405 146.9668 188.546 151.6918 185.4442 156.3984 C180.1471 164.4365 178.0314 167.6826 176.9338 169.4558 C176.6785 169.8683 175.0475 172.3433 173.3093 174.9558 C168.782 181.7605 164.008 189.0994 162.3249 191.8418 C161.5269 193.142 159.1327 196.8496 157.0045 200.0808 C152.5242 206.8831 151.4367 208.5497 148.0326 213.8308 C146.6588 215.962 144.039 220.0121 142.2109 222.8308 C140.3827 225.6495 138.1642 229.0808 137.2808 230.4558 C136.3975 231.8308 134.5082 234.7558 133.0825 236.9558 C131.6568 239.1558 129.4989 242.5286 128.287 244.451 C127.0752 246.3733 125.1633 249.3546 124.0383 251.076 C122.9133 252.7974 121.1187 255.5558 120.0502 257.2058 C118.9817 258.8558 117.1887 261.6121 116.0658 263.3308 C114.9428 265.0496 112.9896 268.1297 111.7252 270.1756 C110.4607 272.2215 108.6171 275.0903 107.6281 276.5506 C106.6391 278.011 105.2541 280.1058 104.5502 281.2058 C99.5553 289.0122 97.2499 292.6365 96.7087 293.5333 C96.365 294.1028 95.2675 295.8372 94.2698 297.3874 C93.2722 298.9375 91.9222 301.0807 91.2698 302.1501 C90.6175 303.2194 88.5998 306.3132 86.7861 309.0251 C84.9725 311.737 82.9613 314.8558 82.3169 315.9558 C81.6725 317.0558 79.6624 320.2058 77.8502 322.9558 C76.0379 325.7058 73.7803 329.3058 72.8332 330.9558 C71.4101 333.435 69.3573 336.6053 66.4387 340.8308 C60.2225 349.8304 60.6166 350.0397 70.8802 343.1888 Z" /></g></g><g transform="translate(85.00000 682.87215) scale(1.00304687) translate(-0.00000 -0.00000)" fill="#FFFFFF"><g id="wordmark" fill="#FFFFFF" fill-rule="evenodd"><path id="letter-e1" d="M1.711 143.6037 C-0.1721 143.2189 0.0044 150.6512 0.0044 71.7533 L0.0044 1.1657 L0.5247 0.6809 C1.193 0.0584 2.124 -0.0495 6.2544 0.0173 C8.1106 0.0473 31.8745 0.0886 59.0629 0.109 L108.4965 0.1462 L109.3129 0.8753 L110.1294 1.6043 L110.1983 7.5628 C110.2759 14.2776 110.164 14.8156 108.5083 15.6875 C107.6738 16.1269 105.9403 16.1463 67.2583 16.148 C24.2903 16.1499 23.6473 16.1622 23.2009 16.9959 C22.8116 17.7229 22.8981 60.5919 23.2898 61.0639 C23.5094 61.3284 30.4842 61.4021 60.3448 61.4555 C96.6191 61.5203 97.1412 61.5281 97.9783 62.0212 C99.99 63.2062 100.1811 64.036 100.0044 70.818 L99.8794 75.6147 L99.1436 76.382 C97.907 77.6717 98.7751 77.6422 61.3794 77.6631 C26.3675 77.6826 23.6674 77.7359 23.2365 78.4167 C23.108 78.6196 23.0104 89.0026 23.0082 102.6945 L23.0044 126.6179 L23.56 127.007 C24.0576 127.3555 28.5965 127.3968 66.9975 127.4017 C114.7893 127.4078 111.2604 127.2797 112.4224 129.0509 C113.4714 130.6498 113.1887 142.6001 112.0849 143.3234 C111.427 143.7544 3.7866 144.0279 1.711 143.6037 Z" /><path id="letter-x" d="M135.6473 143.6114 C132.9202 142.882 133.6015 141.1479 139.2886 134.3437 C140.026 133.4614 142.0919 130.8458 143.8794 128.5313 C146.7924 124.7595 155.0946 114.1822 160.6647 107.1462 C161.8077 105.7025 167.8953 98.0525 174.1926 90.1462 C187.6946 73.1947 189.932 70.3286 190.3093 69.5006 C190.6455 68.7627 190.0356 67.8146 185.7398 62.3962 C184.2681 60.5399 181.335 56.7034 179.2217 53.8705 C177.1085 51.0376 172.7183 45.2317 169.4658 40.9686 C161.2398 30.1865 160.0078 28.5808 156.8731 24.5583 C155.3572 22.6129 153.0509 19.6161 151.7481 17.8986 C149.733 15.2422 146.2752 10.7809 141.6704 4.8962 C139.9251 2.6659 139.7147 2.2664 139.8987 1.5333 C140.2593 0.0967 140.2761 0.0947 151.6742 0.1233 C165.8373 0.1588 165.8768 0.1685 169.0618 4.4015 C169.939 5.5673 173.2218 9.8962 176.3569 14.0212 C179.492 18.1462 183.6729 23.6587 185.6477 26.2712 C203.3817 49.7311 204.8302 51.5433 205.6084 51.2447 C206.0625 51.0704 210.1345 46.037 214.8794 39.7848 C216.5294 37.6107 218.9535 34.4682 220.2662 32.8015 C221.579 31.1348 224.0082 27.9712 225.6645 25.7712 C227.3207 23.5712 230.2404 19.8503 232.1526 17.5025 C234.0649 15.1548 237.429 10.936 239.6285 8.1275 C246.4604 -0.596 244.7426 0.1462 258.1012 0.1462 L267.9765 0.1462 L268.6467 0.7227 C270.0368 1.9184 269.8382 2.2208 259.004 15.3962 C254.9566 20.3183 251.5626 24.5896 248.9205 28.0862 C247.8545 29.497 246.0549 31.747 244.9215 33.0862 C243.788 34.4254 241.9137 36.7587 240.7563 38.2712 C238.686 40.9768 237.5967 42.3501 231.6294 49.7778 C229.9794 51.8317 227.5181 54.9766 226.1598 56.7666 C224.8015 58.5566 222.7202 61.1828 221.5348 62.6027 C216.6732 68.4252 216.2375 66.5004 224.8557 77.2712 C226.5061 79.3337 229.6646 83.3837 231.8748 86.2712 C237.9755 94.2417 240.6027 97.6339 243.7679 101.6271 C245.3566 103.6313 248.2186 107.2962 250.1278 109.7712 C252.037 112.2462 254.9037 115.9024 256.4983 117.8962 C258.093 119.89 260.6253 123.1524 262.1257 125.1462 C263.6262 127.14 265.7143 129.8399 266.766 131.1462 C273.3257 139.2934 274.7895 141.5489 274.1501 142.5246 C273.4036 143.664 273.3474 143.6686 261.0658 143.5931 L249.3794 143.5212 L248.2065 142.9217 C247.5613 142.5919 246.645 141.9169 246.1702 141.4217 C245.14 140.3471 232.1607 123.1386 223.5044 111.3703 C219.0981 105.3798 216.0383 101.3299 212.6422 96.993 C211.1227 95.0525 208.6606 91.817 207.171 89.8031 C204.4397 86.1106 203.7839 85.4612 203.1519 85.8231 C202.6562 86.107 198.6333 91.0703 194.8861 96.0212 C193.1168 98.3587 191.0312 101.0587 190.2513 102.0212 C189.4715 102.9837 187.4461 105.6275 185.7504 107.8962 C184.0548 110.1649 181.9959 112.8477 181.175 113.858 C180.3542 114.8682 176.1228 120.4369 171.772 126.233 C157.7778 144.8755 159.2704 143.4296 153.8794 143.5658 C146.3787 143.7553 136.2798 143.7805 135.6473 143.6114 Z" /><path id="letter-c" d="M343.0044 143.7311 C311.2904 142.0558 294.4193 128.3163 290.867 101.2712 C290.0506 95.0558 289.8085 57.9334 290.5116 46.7712 C291.784 26.5699 300.3606 13.1319 316.5044 6.0452 C317.3982 5.6529 318.5794 5.1331 319.1294 4.89 C323.633 2.9003 331.6823 1.1117 339.5044 0.3625 C343.4303 -0.0134 410.3626 0.0311 411.7941 0.4106 C412.7526 0.6648 414.1114 1.9875 414.5212 3.0652 C414.6494 3.4027 414.7544 6.2503 414.7544 9.3933 L414.7544 15.1078 L414.1344 15.8446 C413.0025 17.1899 414.526 17.134 376.8794 17.2108 L341.6294 17.2827 L338.3794 17.9766 C322.0871 21.4552 314.6435 30.7662 313.5187 49.0741 C313.1825 54.547 313.1774 88.1437 313.5119 93.7712 C314.6263 112.5184 321.7187 122.0213 337.2544 125.5833 L340.1294 126.2425 L376.5506 126.3818 L412.9718 126.5212 L413.7323 127.2499 C416.0422 129.4633 415.3537 141.3612 412.8247 142.9335 L411.8794 143.5212 L395.1294 143.6774 C378.3535 143.8338 345.5886 143.8676 343.0044 143.7311 Z" /><path id="letter-e2" d="M481.6294 143.7272 C459.6889 143.0731 449.7538 136.8054 446.43 121.5212 L445.8864 119.0212 L445.8159 72.404 C445.7381 20.9451 445.669 23.5119 447.2749 18.2402 C450.4748 7.7362 459.5475 1.7989 474.5044 0.4209 C479.6058 -0.0491 560.7791 0.0169 561.6974 0.4917 C563.4886 1.418 564.4045 11.3385 562.9574 14.1405 C561.7555 16.4678 565.704 16.2496 523.3848 16.3276 C478.9479 16.4095 479.444 16.4008 477.151 17.1368 C472.4204 18.6552 469.3382 22.4055 468.5138 27.6462 C468.0197 30.787 468.1761 57.9946 468.6919 58.6284 L469.1294 59.1659 L508.5044 59.1554 C549.7351 59.1445 550.1438 59.155 551.6068 60.2709 C553.0368 61.3617 553.2295 62.2301 553.3088 67.9436 C553.392 73.9293 553.2171 74.5604 551.1856 75.6059 L550.0376 76.1966 L509.4863 76.2538 C470.2639 76.3091 468.9239 76.3262 468.5947 76.7764 C468.0726 77.4904 468.0965 113.777 468.6209 116.5178 C469.3927 120.5516 471.7607 123.9012 474.9045 125.406 C478.3195 127.0407 475.7277 126.9482 520.5813 127.0367 C565.6882 127.1257 562.0565 126.9873 563.3074 128.6656 C565.0162 130.9584 564.6361 142.3891 562.8187 143.3618 C562.4043 143.5836 488.0385 143.9183 481.6294 143.7272 Z" /><path id="letter-l" d="M625.5044 143.6192 C607.1944 143.1828 599.392 138.132 596.5808 124.8962 C596.0372 122.3372 595.7321 5.5858 596.2638 3.6114 C597.1009 0.5024 598.2485 0.149 607.5044 0.149 C616.518 0.149 617.5116 0.41 618.5116 3.0401 C618.6404 3.379 618.7494 27.6687 618.7686 60.3248 C618.787 91.5078 618.894 117.5837 619.0065 118.2712 C619.5592 121.649 621.2588 124.1299 623.9564 125.4969 C626.705 126.8897 626.7946 126.8928 664.1294 126.9093 C701.6257 126.9259 699.5305 126.8361 700.8557 128.4824 L701.6294 129.4436 L701.6294 135.6537 L701.6294 141.8638 L700.9068 142.6179 C700.5093 143.0326 699.8528 143.4447 699.4479 143.5336 C698.4932 143.7433 633.8494 143.8182 625.5044 143.6192 Z" /><path id="letter-s" d="M737.7544 143.6493 C729.536 143.4621 729.4306 143.3718 729.2933 136.3962 C729.1727 130.2751 729.6333 128.6615 731.8467 127.4497 C732.5741 127.0514 735.5938 127.0113 774.6294 126.8809 C821.0831 126.7258 818.3468 126.8277 821.9428 125.1199 C828.8304 121.8489 830.4962 116.8885 830.0358 101.0212 C829.6479 87.6504 827.8441 84.1751 819.8031 81.3073 L817.6294 80.532 L787.6294 80.3842 C753.1033 80.2142 753.4255 80.2338 746.0044 77.849 C737.5984 75.1476 731.2302 68.3212 728.398 58.9757 C726.2801 51.9872 726.295 29.0744 728.4223 21.7712 C732.1122 9.1028 742.0051 2.1126 758.7449 0.3453 C763.8346 -0.192 841.3799 0.0677 842.6427 0.6263 C844.5632 1.4759 844.8576 2.3254 844.9669 7.3339 C845.0872 12.8393 844.9641 13.6627 843.8337 14.9139 C842.4356 16.4614 844.3012 16.3908 802.6294 16.4746 C759.2613 16.5618 761.8454 16.4477 757.7865 18.4544 C751.1867 21.7172 749.8794 25.1796 749.8794 39.3962 C749.8794 52.7791 751.0546 56.5604 756.1403 59.5408 C760.2885 61.9718 759.8986 61.9441 790.7544 62.0004 C827.4283 62.0674 831.3561 62.5975 840.1332 68.6651 C851.0002 76.1774 854.0149 86.3786 852.7529 111.3668 C851.8104 130.0282 842.5392 140.0539 823.5044 142.9955 C819.894 143.5534 813.3539 143.6615 779.8678 143.717 C759.7992 143.7502 740.8482 143.7198 737.7544 143.6493 Z" /><path id="letter-i" d="M890.1707 143.6141 C888.6237 143.3805 887.3653 142.5371 886.6748 141.2712 L886.1294 140.2712 L886.0651 72.3479 C885.992 -4.8895 885.7846 2.56 888.052 0.9878 L889.0855 0.2712 L897.0328 0.1958 C907.0234 0.101 907.9334 0.3472 908.7461 3.3654 C909.274 5.3261 908.9676 140.1098 908.4329 141.0886 C907.8151 142.2197 906.176 143.3455 904.9213 143.5004 C903.1616 143.7176 891.4539 143.8079 890.1707 143.6141 Z" /><path id="letter-a" d="M936.8328 143.6236 C935.4632 143.2223 935.5518 142.7453 937.8364 138.213 C938.9985 135.9075 940.7377 132.3337 941.7011 130.2712 C942.6646 128.2087 945.5845 122.1899 948.1898 116.8962 C950.7951 111.6025 953.3098 106.4275 953.778 105.3964 C954.2463 104.3652 956.5833 99.584 958.9713 94.7714 C961.3594 89.9588 963.9899 84.615 964.817 82.8962 C968.8571 74.5003 970.2751 71.5884 974.4948 63.0212 C984.2093 43.2981 985.2997 41.0802 988.2601 35.0212 C989.9396 31.5837 991.7644 27.815 992.3153 26.6462 C992.8661 25.4774 995.2289 20.6399 997.566 15.8962 C999.903 11.1525 1002.353 6.1398 1003.0103 4.7569 C1005.2969 -0.0534 1004.7302 0.1452 1016.1294 0.1617 C1027.6351 0.1784 1026.1666 -0.6145 1029.9908 7.6462 C1030.5955 8.9524 1032.3366 12.5561 1033.8598 15.6543 C1035.3831 18.7525 1037.1295 22.3525 1037.7407 23.6543 C1038.352 24.9561 1040.4161 29.2274 1042.3277 33.1462 C1044.2392 37.065 1046.7337 42.24 1047.871 44.6462 C1049.0083 47.0525 1050.952 51.0462 1052.1905 53.5212 C1053.4289 55.9962 1057.7128 64.8413 1061.7103 73.1769 C1065.7078 81.5125 1070.6094 91.6074 1072.6028 95.6098 C1074.5962 99.6123 1076.8685 104.3235 1077.6525 106.0791 C1078.4365 107.8348 1081.0447 113.3212 1083.4484 118.2712 C1085.8521 123.2212 1088.6365 129.015 1089.6359 131.1462 C1090.6353 133.2774 1092.1958 136.5785 1093.1037 138.4818 C1095.0967 142.6602 1095.1569 143.6306 1093.4241 143.6533 C1067.3215 143.9954 1069.3858 144.4624 1066.3153 137.5212 C1065.3421 135.3212 1063.5689 131.4962 1062.3748 129.0212 C1061.1807 126.5462 1059.1526 122.1587 1057.8678 119.2712 C1053.2258 108.8383 1050.8709 104.0403 1050.2315 103.7124 C1049.0064 103.084 976.6357 103.2761 976.0458 103.9093 C975.7829 104.1915 974.8298 106.0759 973.9279 108.0968 C971.8262 112.8058 969.0502 118.8323 967.5139 122.0212 C966.8514 123.3962 965.721 125.7587 965.0019 127.2712 C964.2828 128.7837 963.1044 131.2587 962.3834 132.7712 C961.6624 134.2837 960.4771 136.8712 959.7495 138.5212 C958.1394 142.1725 957.7044 142.7862 956.3977 143.2501 C955.1684 143.6864 938.1558 144.0112 936.8328 143.6236 Z M1042.3432 87.1762 C1042.8621 86.7456 1042.851 86.5063 1042.2544 85.2712 C1041.9887 84.7212 1041.7675 84.1965 1041.7629 84.1052 C1041.7582 84.0139 1041.2047 82.7764 1040.5329 81.3552 C1036.3368 72.4791 1035.8377 71.406 1034.5058 68.3962 C1033.9887 67.2274 1033.0321 65.1462 1032.3801 63.7712 C1030.5058 59.8182 1029.5664 57.7877 1027.7542 53.7712 C1026.0979 50.1003 1025.4063 48.6236 1022.0174 41.5212 C1021.0989 39.5962 1019.0156 35.1861 1017.3879 31.7208 C1013.3491 23.1229 1014.2729 22.8239 1008.7444 34.5186 C1008.0937 35.895 1007.0295 38.1462 1006.3795 39.5212 C1005.7295 40.8962 1004.5482 43.4275 1003.7542 45.1462 C1002.9603 46.865 1001.3858 50.1837 1000.2553 52.5212 C999.1248 54.8587 997.7522 57.7837 997.205 59.0212 C996.6578 60.2587 995.4203 62.8462 994.4549 64.7712 C992.3944 68.8801 987.3603 79.5595 986.3825 81.8962 C986.0085 82.7899 985.4329 84.0946 985.1035 84.7953 C984.3411 86.4167 984.3311 87.0962 985.0669 87.268 C986.9616 87.7104 1041.8055 87.6225 1042.3432 87.1762 Z" /></g></g></svg>